<svg width="15" height="9" viewBox="0 0 15 9" fill="none" xmlns="http://www.w3.org/2000/svg">
<path d="M0 0H3.09961C3.74805 0 4.30469 0.0976563 4.76953 0.292969C5.23438 0.488281 5.5918 0.777344 5.8418 1.16016C6.0918 1.54297 6.2168 2.01367 6.2168 2.57227C6.2168 3.01367 6.13867 3.39648 5.98242 3.7207C5.82617 4.04492 5.60547 4.31641 5.32031 4.53516C5.03906 4.75391 4.70703 4.92578 4.32422 5.05078L3.82031 5.30859H1.08398L1.07227 4.03711H3.11719C3.44922 4.03711 3.72461 3.97852 3.94336 3.86133C4.16211 3.74414 4.32617 3.58203 4.43555 3.375C4.54883 3.16797 4.60547 2.93164 4.60547 2.66602C4.60547 2.38086 4.55078 2.13477 4.44141 1.92773C4.33203 1.7168 4.16602 1.55469 3.94336 1.44141C3.7207 1.32812 3.43945 1.27148 3.09961 1.27148H1.61133V8.53125H0V0ZM4.81641 8.53125L2.8418 4.71094L4.54688 4.70508L6.54492 8.44922V8.53125H4.81641ZM9.24023 0V8.53125H7.62891V0H9.24023ZM14.3613 0L10.9395 4.16016L8.98242 6.25195L8.69531 4.6875L10.0547 2.92383L12.3867 0H14.3613ZM12.5684 8.53125L9.91406 4.53516L11.0684 3.49219L14.4844 8.53125H12.5684Z" fill="#212121"/>
</svg>
